<svg width="14" height="14" viewBox="0 0 14 14" fill="none" xmlns="http://www.w3.org/2000/svg">
<path d="M12.3331 6.15997C12.4977 7.26964 12.3081 8.40293 11.7915 9.39866C11.2748 10.3944 10.4573 11.2019 9.45527 11.7062C8.45325 12.2106 7.3177 12.3861 6.21015 12.2079C5.10261 12.0297 4.07945 11.5068 3.28622 10.7135C2.49299 9.92029 1.97008 8.89714 1.79186 7.78959C1.61364 6.68204 1.78919 5.5465 2.29354 4.54447C2.79789 3.54245 3.60535 2.72496 4.60109 2.2083C5.59682 1.69163 6.73011 1.50209 7.83977 1.66664C8.97167 1.83449 10.0196 2.36193 10.8287 3.17105C11.6378 3.98017 12.1653 5.02808 12.3331 6.15997Z" stroke="white" stroke-width="2" stroke-linecap="round" stroke-linejoin="round"/>
</svg>
